<svg width="100" height="100" viewBox="0 0 100 100" fill="none" xmlns="http://www.w3.org/2000/svg"><path fill-rule="evenodd" clip-rule="evenodd" d="M36.84 78s-13.16 0-22.56-5.6C6.22 67.599 4.88 64.933 3 63.067h7.52S23.68 74.267 36.84 78zm26.32 0s13.16 0 22.56-5.6c8.06-4.801 9.4-7.467 11.28-9.333h-7.52S76.32 74.267 63.16 78zm-16.92-5.6s-2.754 10.323-19.733-4.265c-3.513-3.019-7.612-2.978-10.347-5.068h7.52s.92 2.845 2.828 3.462c3.432 1.113 10.917.978 19.732 5.871zm7.52 0s2.754 10.323 19.733-4.265c3.513-3.019 7.612-2.978 10.347-5.068h-7.52s-.92 2.845-2.827 3.462c-3.433 1.113-10.918.978-19.733 5.871zm-3.798-1.863c-.784.07-13.4.986-18.21-12.012l-2.297-6.209s2.537.992 3.915 1.412c0 0 .54-3.734-.54-5.408.972-.138 7.407 14.02 8.59 16.23 0 0 .71-4.937-1.935-12.233-2.645-7.297 2.472-6.452 3.456-6.067 0 0-1.582 6.35-.438 8.447 0 0 4.916-3.704 7.497-10.25 2.581 6.546 7.497 10.25 7.497 10.25 1.144-2.097-.438-8.447-.438-8.447.984-.385 6.101-1.23 3.456 6.066-2.645 7.297-1.935 12.235-1.935 12.235 1.183-2.21 7.618-16.37 8.59-16.231-1.08 1.674-.54 5.408-.54 5.408 1.379-.42 3.915-1.412 3.915-1.412-.81 2.192-1.617 4.372-2.298 6.21C63.284 71.94 50 70.532 50 70.532l-.038.004zM50 51.827c4.307 4.845 4.008 14.779 4.008 14.779 1.154 0 2.627-1.33 2.627-5.436C56.635 54.433 50 50 50 50s-6.635 4.433-6.635 11.17c0 4.107 1.472 5.436 2.627 5.436 0 0-.3-9.934 4.008-14.778zM31.753 64.552S16.16 57.147 16.16 48.197c0-8.949-2.944-9.98-4.386-11.131 0 0 12.322-.207 16.409 9.089 0 0-4.77-1.831-7.156-1.585 0 0 3.091 12.309 10.726 19.98zm36.494 0S83.84 57.147 83.84 48.197c0-8.949 2.944-9.98 4.386-11.131 0 0-12.322-.207-16.409 9.089 0 0 4.77-1.831 7.156-1.585 0 0-3.091 12.309-10.726 19.98zM33.99 24.427c.205.244 3.506 4.215 3.506 6.751 0 5.193-6.296 7.678-6.296 13.269 0 0-3.081-3.213-3.081-6.593 0-2.39 1.374-4.46 2.793-6.52l.275-.4c1.417-2.06 2.793-4.131 2.793-6.518l.01.01zm32.02 0c-.205.244-3.506 4.215-3.506 6.751 0 5.193 6.296 7.678 6.296 13.269 0 0 3.081-3.213 3.081-6.593 0-2.39-1.374-4.46-2.793-6.52l-.275-.4c-1.417-2.06-2.794-4.131-2.794-6.518l-.009.01zM50 26.626s-1.739 4.804-4.693 8.82l2.954.313s-3.168 4.902-6.66 6.795c0 0-.482-3.526-2.121-5.947 0 0 7.85-5.58 7.85-14.607 0 0 1.15 1.516 2.67 2.416 1.52-.9 2.67-2.416 2.67-2.416 0 9.027 7.85 14.607 7.85 14.607-1.639 2.42-2.12 5.947-2.12 5.947-3.493-1.893-6.661-6.795-6.661-6.795l2.954-.313C51.739 31.43 50 26.626 50 26.626zm1.34 7.591l-1.329-1.32-1.351 1.343 1.329 1.32 1.351-1.343z" fill="url(#paint0_linear_126_5)"/><defs><linearGradient id="paint0_linear_126_5" x1="50" y1="78" x2="50" y2="22" gradientUnits="userSpaceOnUse"><stop stop-color="#F78D69"/><stop offset="1" stop-color="#FC65A1"/></linearGradient></defs></svg>