<svg viewBox="0 0 40 24" xmlns="http://www.w3.org/2000/svg" fill-rule="evenodd" clip-rule="evenodd" stroke-linejoin="round" stroke-miterlimit="2"><path d="M18 30s-7 0-12-3c-4.287-2.572-5-4-6-5h4s7 6 14 8zm14 0s7 0 12-3c4.287-2.572 5-4 6-5h-4s-7 6-14 8zm-9-3s-1.465 5.53-10.496-2.285C10.635 23.098 8.455 23.12 7 22h4s.489 1.524 1.504 1.855c1.826.596 5.807.524 10.496 3.145zm4 0s1.465 5.53 10.496-2.285C39.365 23.098 41.545 23.12 43 22h-4s-.489 1.524-1.504 1.855C35.67 24.451 31.689 24.379 27 27zm-2.02-.998c-.417.037-7.128.528-9.686-6.435l-1.222-3.326s1.349.531 2.082.756c0 0 .287-2-.287-2.897.517-.074 3.94 7.511 4.569 8.695 0 0 .378-2.645-1.029-6.554-1.407-3.909 1.315-3.456 1.838-3.25 0 0-.841 3.402-.233 4.525 0 0 2.615-1.984 3.988-5.491 1.373 3.507 3.988 5.491 3.988 5.491.608-1.123-.233-4.525-.233-4.525.523-.206 3.245-.659 1.838 3.25s-1.029 6.554-1.029 6.554c.629-1.184 4.052-8.769 4.569-8.695-.574.897-.287 2.897-.287 2.897.733-.225 2.082-.756 2.082-.756l-1.222 3.326C32.066 26.754 25 26 25 26l-.02.002zM25 15.979c2.291 2.595 2.132 7.917 2.132 7.917.614 0 1.397-.712 1.397-2.912C28.529 17.375 25 15 25 15s-3.529 2.375-3.529 5.984c0 2.2.783 2.912 1.397 2.912 0 0-.159-5.322 2.132-7.917zm-9.706 6.816S7 18.829 7 14.034C7 9.24 5.434 8.688 4.667 8.071c0 0 6.554-.111 8.728 4.869 0 0-2.537-.981-3.806-.849 0 0 1.644 6.594 5.705 10.704zm19.412 0S43 18.829 43 14.034c0-4.794 1.566-5.346 2.333-5.963 0 0-6.554-.111-8.728 4.869 0 0 2.537-.981 3.806-.849 0 0-1.644 6.594-5.705 10.704zM16.484 1.3c.109.131 1.865 2.258 1.865 3.617C18.349 7.699 15 9.03 15 12.025c0 0-1.639-1.721-1.639-3.532 0-1.28.731-2.389 1.486-3.493l.146-.214c.754-1.103 1.486-2.213 1.486-3.492l.005.006zm17.032 0c-.109.131-1.865 2.258-1.865 3.617C31.651 7.699 35 9.03 35 12.025c0 0 1.639-1.721 1.639-3.532 0-1.28-.731-2.389-1.486-3.493l-.146-.214c-.754-1.103-1.486-2.213-1.486-3.492l-.005.006zM25 2.478s-.925 2.574-2.496 4.725l1.571.168s-1.685 2.626-3.543 3.64c0 0-.256-1.889-1.128-3.186 0 0 4.176-2.989 4.176-7.825 0 0 .611.812 1.42 1.294C25.809.812 26.42 0 26.42 0c0 4.836 4.176 7.825 4.176 7.825-.872 1.297-1.128 3.186-1.128 3.186-1.858-1.014-3.543-3.64-3.543-3.64l1.571-.168C25.925 5.052 25 2.478 25 2.478zm.713 4.067l-.707-.707-.719.719.707.707.719-.719z" fill="url(#_Linear1)" transform="scale(.8)"/><defs><linearGradient id="_Linear1" x1="0" y1="0" x2="1" y2="0" gradientUnits="userSpaceOnUse" gradientTransform="matrix(0 -30 18 0 25 30)"><stop offset="0" stop-color="#f78d69"/><stop offset="1" stop-color="#fc65a1"/></linearGradient></defs></svg>