<svg viewBox="0 0 49 60" xmlns="http://www.w3.org/2000/svg" fill-rule="evenodd" clip-rule="evenodd" stroke-linejoin="round" stroke-miterlimit="2"><path d="M17.464 11.536a5.004 5.004 0 010-7.072 5.004 5.004 0 017.072 0 5.004 5.004 0 010 7.072L21 15.071l-3.536-3.535z" fill="url(#_Linear1)" transform="translate(-78.42 -14.708) scale(4.90096)"/><path d="M19.52 33s-4.48 0-7.68-1.92c-2.744-1.646-3.2-2.56-3.84-3.2h2.56s4.48 3.84 8.96 5.12zm8.96 0s4.48 0 7.68-1.92c2.744-1.646 3.2-2.56 3.84-3.2h-2.56s-4.48 3.84-8.96 5.12zm-5.76-1.92s-.938 3.54-6.717-1.462c-1.197-1.035-2.592-1.021-3.523-1.738h2.56s.313.975.963 1.187c1.168.382 3.716.336 6.717 2.013zm2.56 0s.938 3.54 6.717-1.462c1.197-1.035 2.592-1.021 3.523-1.738h-2.56s-.313.975-.963 1.187c-1.168.382-3.716.336-6.717 2.013zm-1.293-.639c-.267.024-4.562.338-6.199-4.118l-.782-2.129s.863.34 1.333.484c0 0 .183-1.28-.184-1.854.33-.047 2.521 4.807 2.924 5.565 0 0 .242-1.693-.659-4.195-.9-2.502.842-2.212 1.177-2.08 0 0-.538 2.178-.15 2.896 0 0 1.674-1.27 2.553-3.514.879 2.244 2.552 3.514 2.552 3.514.39-.718-.149-2.896-.149-2.896.335-.132 2.077-.422 1.177 2.08-.901 2.502-.659 4.195-.659 4.195.403-.758 2.593-5.612 2.924-5.565-.367.574-.184 1.854-.184 1.854a25.24 25.24 0 001.333-.484l-.782 2.129C28.522 30.923 24 30.44 24 30.44l-.013.001zM24 24.027c1.466 1.66 1.364 5.066 1.364 5.066.393 0 .895-.455.895-1.863 0-2.31-2.259-3.83-2.259-3.83s-2.259 1.52-2.259 3.83c0 1.408.502 1.863.895 1.863 0 0-.102-3.406 1.364-5.066zm-6.212 4.362s-5.308-2.538-5.308-5.607c0-3.068-1.002-3.422-1.493-3.817 0 0 4.194-.07 5.586 3.117 0 0-1.624-.628-2.436-.544 0 0 1.052 4.22 3.651 6.85zm12.424 0s5.308-2.538 5.308-5.607c0-3.068 1.002-3.422 1.493-3.817 0 0-4.194-.07-5.586 3.117 0 0 1.624-.628 2.436-.544 0 0-1.052 4.22-3.651 6.85zM18.55 14.632c.07.084 1.193 1.445 1.193 2.315 0 1.78-2.143 2.632-2.143 4.549 0 0-1.049-1.101-1.049-2.26 0-.82.468-1.53.951-2.236l.094-.137c.482-.706.95-1.416.95-2.235l.004.004zm10.9 0c-.07.084-1.193 1.445-1.193 2.315 0 1.78 2.143 2.632 2.143 4.549 0 0 1.049-1.101 1.049-2.26 0-.82-.468-1.53-.951-2.236l-.094-.137c-.482-.706-.95-1.416-.95-2.235l-.004.004zm-5.45.754s-.592 1.647-1.597 3.024l1.005.107s-1.078 1.681-2.268 2.33c0 0-.163-1.209-.721-2.039 0 0 2.672-1.913 2.672-5.008 0 0 .391.52.909.828.518-.308.909-.828.909-.828 0 3.095 2.672 5.008 2.672 5.008-.558.83-.721 2.039-.721 2.039-1.19-.649-2.268-2.33-2.268-2.33l1.005-.107C24.592 17.033 24 15.386 24 15.386zm.456 2.603l-.452-.453-.46.46.452.453.46-.46z" fill="#fff"/><defs><linearGradient id="_Linear1" x1="0" y1="0" x2="1" y2="0" gradientUnits="userSpaceOnUse" gradientTransform="matrix(0 12.0701 -14.5716 0 20.898 3.001)"><stop offset="0" stop-color="#fb6a9a"/><stop offset="1" stop-color="#f88771"/></linearGradient></defs></svg>