<svg width="100" height="100" viewBox="0 0 100 100" fill="none" xmlns="http://www.w3.org/2000/svg">
<path fill-rule="evenodd" clip-rule="evenodd" d="M36.84 78C36.84 78 23.68 78 14.28 72.4C6.22044 67.5989 4.88 64.9333 3 63.0667H10.52C10.52 63.0667 23.68 74.2667 36.84 78ZM63.16 78C63.16 78 76.32 78 85.72 72.4C93.7796 67.5989 95.12 64.9333 97 63.0667H89.48C89.48 63.0667 76.32 74.2667 63.16 78ZM46.24 72.4C46.24 72.4 43.4858 82.7227 26.5075 68.1347C22.9938 65.1163 18.8954 65.1573 16.16 63.0667H23.68C23.68 63.0667 24.5993 65.9115 26.5075 66.5293C29.9404 67.6419 37.4247 67.5075 46.24 72.4ZM53.76 72.4C53.76 72.4 56.5142 82.7227 73.4925 68.1347C77.0062 65.1163 81.1046 65.1573 83.84 63.0667H76.32C76.32 63.0667 75.4007 65.9115 73.4925 66.5293C70.0596 67.6419 62.5753 67.5075 53.76 72.4ZM49.9624 70.5371C49.1784 70.6061 36.5618 71.5227 31.7527 58.5251C31.0722 56.6883 30.2656 54.508 29.4554 52.3165C29.4554 52.3165 31.9915 53.3077 33.3695 53.7277C33.3695 53.7277 33.9091 49.9944 32.83 48.32C33.8019 48.1819 40.2372 62.3405 41.4197 64.5507C41.4197 64.5507 42.1303 59.6133 39.4852 52.3165C36.84 45.0197 41.9574 45.8653 42.9406 46.2499C42.9406 46.2499 41.3595 52.6003 42.5026 54.6965C42.5026 54.6965 47.4188 50.9931 50 44.4467C52.5812 50.9931 57.4974 54.6965 57.4974 54.6965C58.6405 52.6003 57.0594 46.2499 57.0594 46.2499C58.0426 45.8653 63.16 45.0197 60.5148 52.3165C57.8697 59.6133 58.5803 64.5507 58.5803 64.5507C59.7628 62.3405 66.1981 48.1819 67.17 48.32C66.0909 49.9944 66.6305 53.7277 66.6305 53.7277C68.0085 53.3077 70.5446 52.3165 70.5446 52.3165C69.7344 54.508 68.9278 56.6883 68.2473 58.5251C63.2841 71.9408 50 70.5333 50 70.5333L49.9624 70.5371ZM50 51.8275C54.3071 56.6715 54.0082 66.6059 54.0082 66.6059C55.1625 66.6059 56.6345 65.2768 56.6345 61.1701C56.6345 54.4333 50 50 50 50C50 50 43.3655 54.4333 43.3655 61.1701C43.3655 65.2768 44.8375 66.6059 45.9918 66.6059C45.9918 66.6059 45.6929 56.6715 50 51.8275ZM31.7527 64.5507C31.7527 64.5507 16.16 57.1475 16.16 48.1968C16.16 39.248 13.2159 38.2176 11.774 37.0659C11.774 37.0659 24.0955 36.8587 28.1826 46.1547C28.1826 46.1547 23.413 44.3235 21.0273 44.5699C21.0273 44.5699 24.118 56.8787 31.7527 64.5507ZM68.2473 64.5507C68.2473 64.5507 83.84 57.1475 83.84 48.1968C83.84 39.248 86.7841 38.2176 88.226 37.0659C88.226 37.0659 75.9045 36.8587 71.8174 46.1547C71.8174 46.1547 76.587 44.3235 78.9727 44.5699C78.9727 44.5699 75.882 56.8787 68.2473 64.5507ZM33.9899 24.4267C34.1948 24.6712 37.4961 28.6416 37.4961 31.1784C37.4961 36.3715 31.2 38.856 31.2 44.4467C31.2 44.4467 28.1187 41.2341 28.1187 37.8536C28.1187 35.4643 29.493 33.3941 30.9124 31.3333L31.1868 30.9339C32.6044 28.8749 33.9805 26.8029 33.9805 24.4155L33.9899 24.4267ZM66.0101 24.4267C65.8052 24.6712 62.5039 28.6416 62.5039 31.1784C62.5039 36.3715 68.8 38.856 68.8 44.4467C68.8 44.4467 71.8813 41.2341 71.8813 37.8536C71.8813 35.4643 70.507 33.3941 69.0876 31.3333L68.8132 30.9339C67.3956 28.8749 66.0195 26.8029 66.0195 24.4155L66.0101 24.4267ZM50 26.6256C50 26.6256 48.261 31.4304 45.3075 35.4456L48.261 35.7592C48.261 35.7592 45.0932 40.6611 41.6002 42.5539C41.6002 42.5539 41.1189 39.0277 39.4795 36.6067C39.4795 36.6067 47.3304 31.0272 47.3304 22C47.3304 22 48.4791 23.5157 50 24.4155C51.5209 23.5157 52.6696 22 52.6696 22C52.6696 31.0272 60.5205 36.6067 60.5205 36.6067C58.8811 39.0277 58.3998 42.5539 58.3998 42.5539C54.9068 40.6611 51.739 35.7592 51.739 35.7592L54.6925 35.4456C51.739 31.4304 50 26.6256 50 26.6256ZM51.3404 34.2173L50.0113 32.8976L48.6596 34.2397L49.9887 35.5595L51.3404 34.2173Z" fill="url(#paint0_linear_126_5)"/>
<defs>
<linearGradient id="paint0_linear_126_5" x1="50" y1="78" x2="50" y2="22" gradientUnits="userSpaceOnUse">
<stop stop-color="#F78D69"/>
<stop offset="1" stop-color="#FC65A1"/>
</linearGradient>
</defs>
</svg>
