<?xml version="1.0" encoding="UTF-8" standalone="no"?>
<!DOCTYPE svg PUBLIC "-//W3C//DTD SVG 1.1//EN" "http://www.w3.org/Graphics/SVG/1.1/DTD/svg11.dtd">
<svg width="100%" height="100%" viewBox="0 0 40 24" version="1.1" xmlns="http://www.w3.org/2000/svg" xmlns:xlink="http://www.w3.org/1999/xlink" xml:space="preserve" xmlns:serif="http://www.serif.com/" style="fill-rule:evenodd;clip-rule:evenodd;stroke-linejoin:round;stroke-miterlimit:2;">
    <g transform="matrix(1,0,0,1,-275.4,-15)">
        <g transform="matrix(0.8,0,0,0.8,275.4,15)">
            <path d="M18,30C18,30 11,30 6,27C1.713,24.428 1,23 0,22L4,22C4,22 11,28 18,30ZM32,30C32,30 39,30 44,27C48.287,24.428 49,23 50,22L46,22C46,22 39,28 32,30ZM23,27C23,27 21.535,32.53 12.504,24.715C10.635,23.098 8.455,23.12 7,22L11,22C11,22 11.489,23.524 12.504,23.855C14.33,24.451 18.311,24.379 23,27ZM27,27C27,27 28.465,32.53 37.496,24.715C39.365,23.098 41.545,23.12 43,22L39,22C39,22 38.511,23.524 37.496,23.855C35.67,24.451 31.689,24.379 27,27ZM24.98,26.002C24.563,26.039 17.852,26.53 15.294,19.567C14.932,18.583 14.503,17.415 14.072,16.241C14.072,16.241 15.421,16.772 16.154,16.997C16.154,16.997 16.441,14.997 15.867,14.1C16.384,14.026 19.807,21.611 20.436,22.795C20.436,22.795 20.814,20.15 19.407,16.241C18,12.332 20.722,12.785 21.245,12.991C21.245,12.991 20.404,16.393 21.012,17.516C21.012,17.516 23.627,15.532 25,12.025C26.373,15.532 28.988,17.516 28.988,17.516C29.596,16.393 28.755,12.991 28.755,12.991C29.278,12.785 32,12.332 30.593,16.241C29.186,20.15 29.564,22.795 29.564,22.795C30.193,21.611 33.616,14.026 34.133,14.1C33.559,14.997 33.846,16.997 33.846,16.997C34.579,16.772 35.928,16.241 35.928,16.241C35.497,17.415 35.068,18.583 34.706,19.567C32.066,26.754 25,26 25,26L24.98,26.002ZM25,15.979C27.291,18.574 27.132,23.896 27.132,23.896C27.746,23.896 28.529,23.184 28.529,20.984C28.529,17.375 25,15 25,15C25,15 21.471,17.375 21.471,20.984C21.471,23.184 22.254,23.896 22.868,23.896C22.868,23.896 22.709,18.574 25,15.979ZM15.294,22.795C15.294,22.795 7,18.829 7,14.034C7,9.24 5.434,8.688 4.667,8.071C4.667,8.071 11.221,7.96 13.395,12.94C13.395,12.94 10.858,11.959 9.589,12.091C9.589,12.091 11.233,18.685 15.294,22.795ZM34.706,22.795C34.706,22.795 43,18.829 43,14.034C43,9.24 44.566,8.688 45.333,8.071C45.333,8.071 38.779,7.96 36.605,12.94C36.605,12.94 39.142,11.959 40.411,12.091C40.411,12.091 38.767,18.685 34.706,22.795ZM16.484,1.3C16.593,1.431 18.349,3.558 18.349,4.917C18.349,7.699 15,9.03 15,12.025C15,12.025 13.361,10.304 13.361,8.493C13.361,7.213 14.092,6.104 14.847,5L14.993,4.786C15.747,3.683 16.479,2.573 16.479,1.294L16.484,1.3ZM33.516,1.3C33.407,1.431 31.651,3.558 31.651,4.917C31.651,7.699 35,9.03 35,12.025C35,12.025 36.639,10.304 36.639,8.493C36.639,7.213 35.908,6.104 35.153,5L35.007,4.786C34.253,3.683 33.521,2.573 33.521,1.294L33.516,1.3ZM25,2.478C25,2.478 24.075,5.052 22.504,7.203L24.075,7.371C24.075,7.371 22.39,9.997 20.532,11.011C20.532,11.011 20.276,9.122 19.404,7.825C19.404,7.825 23.58,4.836 23.58,0C23.58,0 24.191,0.812 25,1.294C25.809,0.812 26.42,-0 26.42,-0C26.42,4.836 30.596,7.825 30.596,7.825C29.724,9.122 29.468,11.011 29.468,11.011C27.61,9.997 25.925,7.371 25.925,7.371L27.496,7.203C25.925,5.052 25,2.478 25,2.478ZM25.713,6.545L25.006,5.838L24.287,6.557L24.994,7.264L25.713,6.545Z" style="fill:url(#_Linear1);"/>
        </g>
    </g>
    <defs>
        <linearGradient id="_Linear1" x1="0" y1="0" x2="1" y2="0" gradientUnits="userSpaceOnUse" gradientTransform="matrix(1.83697e-15,-30,18,1.10218e-15,25,30)"><stop offset="0" style="stop-color:rgb(247,141,105);stop-opacity:1"/><stop offset="1" style="stop-color:rgb(252,101,161);stop-opacity:1"/></linearGradient>
    </defs>
</svg>
